<?xml version="1.0" encoding="iso-8859-1"?>
<!-- Uploaded to: SVG Repo, www.svgrepo.com, Generator: SVG Repo Mixer Tools -->
<svg version="1.1" id="Layer_1" xmlns="http://www.w3.org/2000/svg" xmlns:xlink="http://www.w3.org/1999/xlink" 
	 viewBox="0 0 475.331 475.331" xml:space="preserve">
<path style="fill:#4ABC96;" d="M0,237.663C0,106.409,106.405,0,237.667,0c131.254,0,237.663,106.409,237.663,237.66
	c0,131.269-106.409,237.671-237.663,237.671C106.405,475.331,0,368.933,0,237.663z"/>
<g>
	<path style="fill:#A3D4AA;" d="M356.106,174.895c0,6.039-4.902,10.93-10.934,10.93h-68.31c-6.035,0-10.933-4.894-10.933-10.93
		v-39.622c0-6.036,4.898-10.93,10.933-10.93h68.31c6.035,0,10.933,4.894,10.933,10.93L356.106,174.895L356.106,174.895z"/>
	<path style="fill:#A3D4AA;" d="M387.417,302.146c0,19.644-15.921,35.562-35.562,35.562H129.604
		c-19.641,0-35.562-15.921-35.562-35.562V173.245c0-19.641,15.921-35.562,35.562-35.562h222.255
		c19.641,0,35.562,15.921,35.562,35.562v128.901H387.417z"/>
</g>
<rect x="293.314" y="129.553" transform="matrix(-0.7071 0.7071 -0.7071 -0.7071 636.1431 67.9683)" style="opacity:0.15;enable-background:new    ;" width="21.362" height="72.362"/>
<g>
	<path style="fill:#F6A2A3;" d="M289.427,180.451c0,6.036-4.898,10.93-10.934,10.93H210.18c-6.039,0-10.934-4.894-10.934-10.93
		v-39.618c0-6.036,4.898-10.934,10.934-10.934h68.31c6.035,0,10.934,4.898,10.934,10.934v39.618H289.427z"/>
	<path style="fill:#F6A2A3;" d="M387.417,309.929c0,19.644-15.921,35.562-35.562,35.562H129.604
		c-19.641,0-35.562-15.921-35.562-35.562V181.02c0-19.637,15.921-35.562,35.562-35.562h222.255
		c19.641,0,35.562,15.925,35.562,35.562v128.908H387.417z"/>
</g>
<rect x="224.674" y="135.966" transform="matrix(-0.7072 0.707 -0.707 -0.7072 523.507 127.4891)" style="opacity:0.15;enable-background:new    ;" width="21.362" height="72.358"/>
<g>
	<path style="fill:#F9F29A;" d="M222.745,188.601c0,6.035-4.898,10.934-10.934,10.934h-68.314c-6.036,0-10.934-4.898-10.934-10.934
		v-39.622c0-6.032,4.898-10.93,10.934-10.93h68.31c6.039,0,10.934,4.898,10.934,10.93v39.622H222.745z"/>
	<path style="fill:#F9F29A;" d="M387.417,354.381H94.042v-164.47c0-19.637,15.921-35.562,35.562-35.562h222.255
		c19.641,0,35.562,15.925,35.562,35.562v164.47H387.417z"/>
</g>
<circle style="fill:#CC2027;" cx="341.85" cy="323.403" r="58.529"/>
<rect x="312.626" y="315.171" style="fill:#FFFFFF;" width="62.237" height="17.904"/>
</svg>